<?xml version="1.0" ?><!DOCTYPE svg  PUBLIC '-//W3C//DTD SVG 1.1//EN'  'http://www.w3.org/Graphics/SVG/1.1/DTD/svg11.dtd'><svg enable-background="new 0 0 512 512" id="Layer_1" version="1.1" viewBox="0 0 512 512" xml:space="preserve" xmlns="http://www.w3.org/2000/svg" xmlns:xlink="http://www.w3.org/1999/xlink"><g><path d="M254.7,507.9C117,507.9,5.8,395.2,6.5,255.1C7.2,116.7,119.1,4.6,258,6.2   c135.8,1.5,246.6,112.9,245.5,252.9C502.4,397.1,391.8,507.7,254.7,507.9z M255.1,25.9c-124.5-0.3-227.7,101-229,228.5   c-1.4,130.3,102.7,232.7,226.8,233.8c125.9,1.1,230.3-100.9,231-229.1C484.5,129.5,382.3,25.9,255.1,25.9z" fill="#94D22B"/><path d="M137.5,219.7c13.8,0.1,23.8,4.1,32.3,11.8c2.2,2,3.6,1.9,5.8,0.2c39.5-30.3,79-60.5,118.6-90.6   c2.5-1.9,3.1-3.7,2.6-6.7c-5.6-35.2,26.2-62.4,59.9-51.3c28.9,9.5,39.7,48.3,20.2,72.8c-16.8,21.1-46.3,23.5-66.1,5   c-2.7-2.6-4.3-2.7-7.3-0.4c-39.1,30-78.2,59.9-117.4,89.8c-2.4,1.8-2.8,3.4-2.2,6.2c2.5,11,0.9,21.5-4.3,31.5   c-1.4,2.7-1.2,3.7,1.7,5.1c42.6,20.1,85.1,40.3,127.6,60.6c3.7,1.8,5.9,1.5,9.1-1.1c15.9-13.2,36.8-14.2,53.8-2.9   c16.8,11.2,24.3,33.1,18.1,52.9c-6,19.2-23.6,32.4-43.3,32.4c-29.1,0-51-28.3-44-57.2c1-4,0-5.5-3.5-7.2   c-43.6-20.6-87.2-41.4-130.7-62.2c-3.7-1.8-6.4-1.6-10.1,0.2c-26.2,13.1-60-5.8-63.3-34.9c-2.4-21.2,5-37.5,23.4-48.4   C124.8,221.3,132.1,219.5,137.5,219.7z" fill="#93D22A"/></g></svg>